<svg xmlns="http://www.w3.org/2000/svg" viewBox="0 0 64 64">
  <defs>
    <linearGradient id="grad1" x1="0%" y1="0%" x2="100%" y2="100%">
      <stop offset="0%" stop-color="#3b82f6"/>
      <stop offset="100%" stop-color="#6366f1"/>
    </linearGradient>
    <linearGradient id="grad2" x1="0%" y1="0%" x2="100%" y2="100%">
      <stop offset="0%" stop-color="#06b6d4"/>
      <stop offset="100%" stop-color="#3b82f6"/>
    </linearGradient>
  </defs>

  <!-- Background -->
  <rect width="64" height="64" rx="12" fill="#f8fafc"/>

  <!-- Resume document -->
  <rect x="14" y="10" width="28" height="38" rx="4" fill="white" stroke="#e2e8f0"/>

  <!-- Fold corner -->
  <polygon points="34,10 42,10 42,18" fill="url(#grad1)"/>

  <!-- Avatar -->
  <circle cx="22" cy="20" r="4" fill="url(#grad1)"/>
  <rect x="18" y="26" width="16" height="2" rx="1" fill="#64748b"/>
  <rect x="18" y="30" width="14" height="2" rx="1" fill="#94a3b8"/>
  <rect x="18" y="34" width="12" height="2" rx="1" fill="#94a3b8"/>

  <!-- AI node -->
  <circle cx="18" cy="48" r="6" fill="url(#grad2)"/>

  <!-- Checkmark -->
  <path d="M15 48 L17 50 L21 45" stroke="white" stroke-width="2" fill="none" stroke-linecap="round" stroke-linejoin="round"/>

  <!-- AI connection lines -->
  <line x1="24" y1="44" x2="30" y2="40" stroke="#6366f1" stroke-width="1.5"/>
  <circle cx="30" cy="40" r="1.5" fill="#6366f1"/>
  <circle cx="34" cy="36" r="1.5" fill="#6366f1"/>
  <line x1="30" y1="40" x2="34" y2="36" stroke="#6366f1" stroke-width="1.5"/>
</svg>